<svg version="1.1" xmlns="http://www.w3.org/2000/svg" xmlns:xlink="http://www.w3.org/1999/xlink">
  <defs>
    <symbol id="brand" stroke="none" viewBox="0 0 280 250">
        <path d="M20,0 L260,0 C271.045695,-2.02906125e-15 280,8.954305 280,20 L280,230 C280,241.045695 271.045695,250 260,250 L20,250 C8.954305,250 -1.28581472e-14,241.045695 0,230 L0,20 C-1.3527075e-15,8.954305 8.954305,2.02906125e-15 20,0 Z M110.001095,159.500768 C110.001095,159.500768 110.001095,185.000548 140.000821,185.000548 C170.000548,185.000548 170.000548,159.500768 170.000548,159.500768 L170.000548,155.000821 C170.000548,155.000821 155.000684,151.330506 140.000821,151.330506 C125.000958,151.330506 110.001095,155.000821 110.001095,155.000821 L110.001095,159.500768 Z M209.155628,87.4447231 L225.852497,79.2097172 C229.557301,77.3573147 231.058971,72.852308 229.206569,69.1475031 C227.354165,65.4426982 222.849159,63.9410293 219.144354,65.7934317 L189.144628,80.7932948 C183.616814,83.5572011 183.616814,91.445674 189.144628,94.2095803 L219.144354,109.209443 C222.849159,111.061845 227.354165,109.560176 229.206569,105.855372 C231.058971,102.150566 229.557301,97.64556 225.852497,95.7931579 L209.155628,87.4447231 Z M70.8443722,87.4447231 L54.1475031,95.7931579 C50.4426982,97.64556 48.9410293,102.150566 50.7934317,105.855372 C52.6458343,109.560176 57.1508409,111.061845 60.8556459,109.209443 L90.855372,94.2095803 C96.3831856,91.445674 96.3831856,83.5572011 90.855372,80.7932948 L60.8556459,65.7934317 C57.1508409,63.9410293 52.6458343,65.4426982 50.7934317,69.1475031 C48.9410293,72.852308 50.4426982,77.3573147 54.1475031,79.2097172 L70.8443722,87.4447231 Z"></path>
    </symbol>

    <symbol id="help" stroke="none" viewBox="0 0 40 40">
      <g transform="translate(-31.000000, -852.000000)">
        <path d="M51,852 C39.970096,852 31,860.970098 31,872 C31,883.029911 39.970096,892 51,892 C62.029904,892 71,883.029911 71,872 C71,860.970098 62.029904,852 51,852 Z M51,854.666667 C60.5887307,854.666667 68.3333333,862.411271 68.3333333,872 C68.3333333,881.588711 60.5887307,889.333333 51,889.333333 C41.4112693,889.333333 33.6666667,881.588711 33.6666667,872 C33.6666667,862.411271 41.4112693,854.666667 51,854.666667 Z M51,860.888889 C47.3338924,860.888889 44.3333333,863.889453 44.3333333,867.555556 C44.3265329,868.036403 44.5791671,868.483664 44.9944971,868.726073 C45.4098272,868.968481 45.9235061,868.968481 46.3388362,868.726073 C46.7541663,868.483664 47.0068004,868.036403 47,867.555556 C47,865.330627 48.7750676,863.555556 51,863.555556 C53.2249324,863.555556 55,865.330627 55,867.555556 C55.0158622,869.381369 54.0754391,870.315689 52.7638889,871.555556 C52.1081138,872.175467 51.3799751,872.820356 50.7638889,873.666667 C50.1478027,874.512978 49.6666667,875.6128 49.6666667,876.888889 C49.6598663,877.369737 49.9125004,877.816997 50.3278305,878.059406 C50.7431605,878.301814 51.2568395,878.301814 51.6721695,878.059406 C52.0874996,877.816997 52.3401337,877.369737 52.3333333,876.888889 C52.3333333,876.23 52.526408,875.772244 52.9166667,875.236111 C53.3069253,874.700022 53.914588,874.1314 54.5972222,873.486111 C55.9601018,872.197711 57.6852533,870.395796 57.6666667,867.555556 C57.6666342,867.550578 57.6667098,867.546644 57.6666667,867.541667 C57.659028,863.881916 54.6614329,860.888889 51,860.888889 Z M51,879.555556 C50.0181551,879.555556 49.2222222,880.351467 49.2222222,881.333333 C49.2222222,882.315156 50.0181551,883.111111 51,883.111111 C51.9818449,883.111111 52.7777778,882.315156 52.7777778,881.333333 C52.7777778,880.351467 51.9818449,879.555556 51,879.555556 Z"></path>
      </g>
    </symbol>

    <symbol id="logout" stroke="none" viewBox="0 0 36 43">
        <g id="Panes/Dashboard" transform="translate(-33.000000, -927.000000)">
            <path d="M44.4308036,933.441617 C45.3860747,933.330469 46.2772631,933.940022 46.5200211,934.870594 C46.7627792,935.801167 46.282922,936.768384 45.3950893,937.138045 C40.4943868,939.436549 36.8571429,944.758281 36.8571429,950.818849 C36.8571429,959.09107 43.2022933,965.604563 51,965.604563 C58.7977074,965.604563 65.1428571,959.09107 65.1428571,950.818849 C65.1428571,944.758281 61.5056132,939.436549 56.6049107,937.138045 C55.9803769,936.84385 55.560263,936.238787 55.502852,935.550821 C55.445441,934.862855 55.759457,934.196528 56.3265907,933.802887 C56.8937243,933.409247 57.6277948,933.34811 58.2522321,933.64251 C64.5450778,936.59395 69,943.233411 69,950.818849 C69,961.087013 60.9543028,969.461706 51,969.461706 C41.0456979,969.461706 33,961.087013 33,950.818849 C33,943.233411 37.4549222,936.59395 43.7477679,933.64251 C43.9610074,933.53374 44.1926313,933.465615 44.4308036,933.441617 Z M50.9803279,927.000107 C51.5023138,926.994609 52.0042369,927.200926 52.3714594,927.571934 C52.7386819,927.942942 52.9398396,928.446955 52.9289886,928.968857 L52.9289886,945.683143 C52.9388249,946.378655 52.5734077,947.025585 51.9726624,947.376212 C51.3719171,947.726839 50.6289172,947.726839 50.028172,947.376212 C49.4274267,947.025585 49.0620095,946.378655 49.0718457,945.683143 L49.0718457,928.968857 C49.0611409,928.453923 49.2568311,927.956097 49.6153188,927.586289 C49.9738064,927.21648 50.46531,927.005412 50.9803279,927.000107 Z"></path>
        </g>
    </symbol>

    <symbol id="settings" stroke="none" viewBox="0 0 40 40">
        <g id="Panes/Dashboard" transform="translate(-29.000000, -440.000000)">
            <path d="M50.6648169,479.955605 L47.2463929,479.955605 C45.8257492,479.955605 44.7158713,478.801332 44.7158713,477.425083 L44.7158713,475.782464 C44.7158713,475.382908 44.4938957,475.072142 44.1387347,474.938957 C43.3396226,474.672586 42.5405105,474.36182 41.7857936,473.962264 C41.4750277,473.784684 41.0754717,473.873474 40.809101,474.139845 L39.654828,475.294118 C39.1664817,475.782464 38.5449501,476.048835 37.8346282,476.048835 C37.1687014,476.048835 36.5027747,475.782464 36.0144284,475.294118 L33.6170921,472.896781 C32.6403996,471.920089 32.6403996,470.277469 33.6170921,469.300777 L34.7713651,468.146504 C35.0377358,467.880133 35.082131,467.480577 34.9489456,467.169811 C34.5493896,466.415094 34.2386238,465.615982 33.9722531,464.81687 C33.8390677,464.461709 33.5283019,464.239734 33.1287458,464.239734 L31.4861265,464.239734 C30.154273,464.239734 29,463.085461 29,461.664817 L29,458.246393 C29,456.825749 30.154273,455.715871 31.5305216,455.715871 L33.173141,455.715871 C33.572697,455.715871 33.8834628,455.493896 34.0166482,455.138735 C34.2830189,454.339623 34.5937847,453.540511 34.9933407,452.785794 C35.1709212,452.475028 35.082131,452.075472 34.8157603,451.809101 L33.6614872,450.654828 C32.6847947,449.678135 32.6847947,448.035516 33.6614872,447.058824 L36.0588235,444.661487 C36.5471698,444.173141 37.1687014,443.90677 37.8790233,443.90677 C38.5449501,443.90677 39.2108768,444.173141 39.6992231,444.661487 L40.8534961,445.81576 C41.1198668,446.082131 41.5194229,446.126526 41.8301887,445.993341 C42.5849057,445.593785 43.3840178,445.283019 44.1831299,445.016648 C44.5382908,444.883463 44.7602664,444.572697 44.7602664,444.173141 L44.7602664,442.530522 C44.7158713,441.154273 45.8701443,440 47.290788,440 L50.709212,440 C52.1298557,440 53.2397336,441.154273 53.2397336,442.530522 L53.2397336,444.173141 C53.2397336,444.572697 53.4617092,444.883463 53.8168701,445.016648 C54.6159822,445.283019 55.4150943,445.593785 56.1698113,445.993341 C56.4805771,446.170921 56.8801332,446.082131 57.1465039,445.81576 L58.3007769,444.661487 C58.7891232,444.173141 59.4106548,443.90677 60.1209767,443.90677 C60.7869034,443.90677 61.4528302,444.173141 61.9411765,444.661487 L64.3385128,447.058824 C65.3152053,448.035516 65.3152053,449.678135 64.3385128,450.654828 L63.1842397,451.809101 C62.917869,452.075472 62.8734739,452.475028 63.0066593,452.785794 C63.4062153,453.540511 63.7169811,454.339623 63.9833518,455.138735 C64.1165372,455.493896 64.427303,455.715871 64.826859,455.715871 L66.4694784,455.715871 C67.8901221,455.715871 69,456.870144 69,458.246393 L69,461.664817 C69,463.085461 67.845727,464.195339 66.4694784,464.195339 L64.826859,464.195339 C64.427303,464.195339 64.1165372,464.417314 63.9833518,464.772475 C63.7169811,465.571587 63.4062153,466.370699 63.0066593,467.125416 C62.8290788,467.436182 62.917869,467.835738 63.1842397,468.102109 L64.3385128,469.256382 C65.3152053,470.233074 65.3152053,471.875694 64.3385128,472.852386 L61.9411765,475.249723 C61.4528302,475.738069 60.8312986,476.00444 60.1209767,476.00444 C59.4550499,476.00444 58.7891232,475.738069 58.3007769,475.249723 L57.1465039,474.09545 C56.8801332,473.829079 56.4805771,473.784684 56.1698113,473.917869 C55.4150943,474.317425 54.6159822,474.628191 53.8168701,474.894562 C53.4617092,475.027747 53.2397336,475.338513 53.2397336,475.738069 L53.2397336,477.380688 C53.2397336,478.801332 52.0854606,479.955605 50.6648169,479.955605 Z M41.4306326,472.186459 C41.8301887,472.186459 42.2297447,472.27525 42.5405105,472.45283 C43.2064373,472.807991 43.9167592,473.074362 44.627081,473.340733 C45.6925638,473.695893 46.4028857,474.672586 46.4028857,475.782464 L46.4028857,477.425083 C46.4028857,477.91343 46.8024417,478.26859 47.2463929,478.26859 L50.6648169,478.26859 C51.1531632,478.26859 51.5083241,477.869034 51.5083241,477.425083 L51.5083241,475.782464 C51.5083241,474.672586 52.2186459,473.651498 53.2841287,473.340733 C53.9944506,473.118757 54.7047725,472.807991 55.3706992,472.45283 C56.3029967,471.964484 57.5460599,472.186459 58.3007769,472.941176 L59.4550499,474.09545 C59.7658158,474.406215 60.3429523,474.406215 60.6537181,474.09545 L63.0510544,471.698113 C63.3618202,471.387347 63.3618202,470.810211 63.0510544,470.499445 L61.8967814,469.345172 C61.0976693,468.54606 60.9200888,467.391787 61.4084351,466.415094 C61.763596,465.749168 62.0299667,465.038846 62.2963374,464.328524 C62.6514983,463.263041 63.6281909,462.552719 64.7380688,462.552719 L66.3806881,462.552719 C66.8690344,462.552719 67.2241953,462.153163 67.2241953,461.709212 L67.2241953,458.290788 C67.2241953,457.802442 66.8246393,457.447281 66.3806881,457.447281 L64.7380688,457.447281 C63.6281909,457.447281 62.6071032,456.736959 62.2963374,455.671476 C62.0743618,454.961154 61.763596,454.250832 61.4084351,453.584906 C60.9200888,452.608213 61.0976693,451.409545 61.8967814,450.654828 L63.0510544,449.500555 C63.3618202,449.189789 63.3618202,448.612653 63.0510544,448.301887 L60.6537181,445.90455 C60.3429523,445.593785 59.7658158,445.593785 59.4550499,445.90455 L58.3007769,447.058824 C57.5460599,447.813541 56.3029967,448.035516 55.3706992,447.54717 C54.7047725,447.192009 53.9944506,446.925638 53.2841287,446.659267 C52.2186459,446.304107 51.5083241,445.327414 51.5083241,444.217536 L51.5083241,442.574917 C51.5083241,442.08657 51.108768,441.73141 50.6648169,441.73141 L47.2463929,441.73141 C46.7580466,441.73141 46.4028857,442.130966 46.4028857,442.574917 L46.4028857,444.217536 C46.4028857,445.327414 45.6925638,446.348502 44.627081,446.659267 C43.9167592,446.881243 43.2064373,447.192009 42.5405105,447.54717 C41.6082131,448.035516 40.3651498,447.813541 39.6104329,447.058824 L38.4561598,445.90455 C38.145394,445.593785 37.5682575,445.593785 37.2574917,445.90455 L34.8601554,448.301887 C34.5493896,448.612653 34.5493896,449.189789 34.8601554,449.500555 L36.0144284,450.654828 C36.8135405,451.45394 36.991121,452.608213 36.5027747,453.584906 C36.1476138,454.250832 35.8812431,454.961154 35.6148724,455.671476 C35.2597114,456.736959 34.2830189,457.447281 33.173141,457.447281 L31.5305216,457.447281 C31.0421754,457.447281 30.6870144,457.846837 30.6870144,458.290788 L30.6870144,461.709212 C30.6870144,462.197558 31.0865705,462.552719 31.5305216,462.552719 L33.173141,462.552719 C34.2830189,462.552719 35.3041065,463.263041 35.6148724,464.328524 C35.8368479,465.038846 36.1476138,465.749168 36.5027747,466.415094 C36.991121,467.391787 36.8135405,468.590455 36.0144284,469.345172 L34.8601554,470.499445 C34.5493896,470.810211 34.5493896,471.387347 34.8601554,471.698113 L37.2574917,474.09545 C37.5682575,474.406215 38.145394,474.406215 38.4561598,474.09545 L39.6104329,472.941176 C40.0987791,472.45283 40.7647059,472.186459 41.4306326,472.186459 Z M48.9778024,469.345172 C43.8279689,469.345172 39.6104329,465.172031 39.6104329,459.977802 C39.6104329,454.783574 43.8279689,450.610433 48.9778024,450.610433 C54.127636,450.610433 58.345172,454.827969 58.345172,459.977802 C58.345172,465.127636 54.127636,469.345172 48.9778024,469.345172 Z M48.9778024,452.341842 C44.7602664,452.341842 41.3418424,455.760266 41.3418424,459.977802 C41.3418424,464.195339 44.7602664,467.613762 48.9778024,467.613762 C53.1953385,467.613762 56.6137625,464.195339 56.6137625,459.977802 C56.6137625,455.760266 53.1953385,452.341842 48.9778024,452.341842 Z" id="Settings"></path>
        </g>
    </symbol>

    <symbol id="stashes" stroke="none" viewBox="0 0 41 40">
        <g transform="translate(-30.000000, -114.000000)">
            <g transform="translate(26.000000, 114.000000)">
                <g transform="translate(4.000000, 0.000000)">
                    <path d="M20.5569444,20.2722222 C19.3611111,20.3861111 18.3361111,20.1013889 17.3111111,19.5888889 C12.3,17.0833333 7.28888889,14.5777778 2.22083333,12.0152778 C1.82222222,11.8444444 1.42361111,11.6166667 1.13888889,11.3319444 C0.284722222,10.5916667 0.284722222,9.7375 1.13888889,9.05416667 C1.48055556,8.76944444 1.93611111,8.54166667 2.39166667,8.31388889 C7.28888889,5.86527778 12.2430556,3.41666667 17.1402778,0.911111111 C19.4180556,-0.227777778 21.6958333,-0.227777778 23.9736111,0.911111111 C28.8708333,3.35972222 33.7680556,5.80833333 38.7222222,8.25694444 C39.0069444,8.42777778 39.3486111,8.54166667 39.6333333,8.76944444 C41,9.62361111 40.9430556,10.7055556 39.5763889,11.6166667 C39.2916667,11.8444444 39.0069444,11.9583333 38.7222222,12.1291667 C33.7680556,14.5777778 28.8138889,17.0833333 23.8597222,19.5888889 C22.8347222,20.1013889 21.7527778,20.4430556 20.5569444,20.2722222 Z"></path>
                    <path d="M20.2152778,30.1805556 C19.0763889,30.2944444 17.9944444,29.9527778 16.9125,29.4402778 C11.7875,26.8777778 6.71944444,24.3152778 1.59444444,21.7527778 C0.797222222,21.3541667 0.170833333,20.8416667 0.398611111,19.8166667 C0.5125,19.0763889 1.08194444,18.6208333 1.82222222,18.5069444 C2.44861111,18.3930556 3.01805556,18.7347222 3.53055556,19.0194444 C8.2,21.3541667 12.9263889,23.6888889 17.5388889,26.0805556 C19.5888889,27.1055556 21.4111111,27.1625 23.4611111,26.0805556 C28.0736111,23.6888889 32.7430556,21.4111111 37.3555556,19.0763889 C37.7541667,18.8486111 38.2097222,18.6208333 38.6652778,18.5069444 C39.4625,18.3361111 40.0888889,18.6777778 40.4875,19.4180556 C40.8861111,20.1013889 40.6583333,20.7847222 40.0888889,21.2972222 C39.7472222,21.5819444 39.3486111,21.8097222 39.0069444,21.9805556 C34.2805556,24.3722222 29.6111111,26.7638889 24.8847222,29.0986111 C23.4611111,29.8388889 21.9236111,30.2375 20.2152778,30.1805556 Z"></path>
                    <path d="M20.5569444,39.7472222 C19.1902778,39.8611111 17.9375,39.4625 16.6847222,38.8361111 C11.7875,36.3875 6.94722222,33.9958333 2.05,31.5472222 C1.65138889,31.3194444 1.19583333,31.0916667 0.854166667,30.8069444 C0.284722222,30.2944444 0.170833333,29.6111111 0.569444444,28.9277778 C1.025,28.2444444 1.59444444,27.8458333 2.44861111,28.1305556 C2.84722222,28.2444444 3.24583333,28.4722222 3.64444444,28.6430556 C8.31388889,30.9777778 13.0402778,33.3125 17.6527778,35.7041667 C19.5888889,36.7291667 21.4111111,36.7291667 23.3472222,35.7041667 C28.1305556,33.2555556 32.9138889,30.8638889 37.6972222,28.4722222 C38.3805556,28.1305556 39.0069444,27.7888889 39.7472222,28.2444444 C40.7722222,28.8138889 40.8861111,30.2375 39.975,30.9777778 C39.6333333,31.2625 39.2347222,31.4333333 38.8361111,31.6041667 C34.0527778,33.9958333 29.2125,36.3875 24.4291667,38.7791667 C23.2902778,39.4055556 21.9805556,39.8611111 20.5569444,39.7472222 Z"></path>
                </g>
            </g>
        </g>
    </symbol>

  </defs>
</svg>